<mxfile host="app.diagrams.net" modified="2024-03-19T12:00:00.000Z" agent="Mozilla/5.0" version="21.7.5" etag="your-etag" type="device">
  <diagram id="C5RBs43oDa-KdzZeNtuy" name="Sistema de Café Personalizado">
    <mxGraphModel dx="1422" dy="762" grid="1" gridSize="10" guides="1" tooltips="1" connect="1" arrows="1" fold="1" page="1" pageScale="1" pageWidth="827" pageHeight="1169" math="0" shadow="0">
      <root>
        <mxCell id="WIyWlLk6GJQsqaUBKTNV-0"/>
        <mxCell id="WIyWlLk6GJQsqaUBKTNV-1" parent="WIyWlLk6GJQsqaUBKTNV-0"/>
        
        <!-- Actores -->
        <mxCell id="actor1" value="Cliente" style="shape=umlActor;verticalLabelPosition=bottom;verticalAlign=top;html=1;" vertex="1" parent="WIyWlLk6GJQsqaUBKTNV-1">
          <mxGeometry x="40" y="200" width="30" height="60" as="geometry"/>
        </mxCell>
        <mxCell id="actor2" value="Empleado" style="shape=umlActor;verticalLabelPosition=bottom;verticalAlign=top;html=1;" vertex="1" parent="WIyWlLk6GJQsqaUBKTNV-1">
          <mxGeometry x="40" y="400" width="30" height="60" as="geometry"/>
        </mxCell>
        <mxCell id="actor3" value="Admin" style="shape=umlActor;verticalLabelPosition=bottom;verticalAlign=top;html=1;" vertex="1" parent="WIyWlLk6GJQsqaUBKTNV-1">
          <mxGeometry x="40" y="600" width="30" height="60" as="geometry"/>
        </mxCell>

        <!-- Paquetes -->
        <mxCell id="package1" value="Gestión de Usuarios" style="swimlane;fontStyle=0;childLayout=stackLayout;horizontal=1;startSize=30;horizontalStack=0;resizeParent=1;resizeParentMax=0;resizeLast=0;collapsible=1;marginBottom=0;" vertex="1" parent="WIyWlLk6GJQsqaUBKTNV-1">
          <mxGeometry x="200" y="40" width="160" height="120" as="geometry"/>
        </mxCell>
        <mxCell id="package2" value="Gestión de Café" style="swimlane;fontStyle=0;childLayout=stackLayout;horizontal=1;startSize=30;horizontalStack=0;resizeParent=1;resizeParentMax=0;resizeLast=0;collapsible=1;marginBottom=0;" vertex="1" parent="WIyWlLk6GJQsqaUBKTNV-1">
          <mxGeometry x="200" y="200" width="160" height="160" as="geometry"/>
        </mxCell>
        <mxCell id="package3" value="Gestión de Productos" style="swimlane;fontStyle=0;childLayout=stackLayout;horizontal=1;startSize=30;horizontalStack=0;resizeParent=1;resizeParentMax=0;resizeLast=0;collapsible=1;marginBottom=0;" vertex="1" parent="WIyWlLk6GJQsqaUBKTNV-1">
          <mxGeometry x="200" y="400" width="160" height="160" as="geometry"/>
        </mxCell>
        <mxCell id="package4" value="Gestión de Reseñas" style="swimlane;fontStyle=0;childLayout=stackLayout;horizontal=1;startSize=30;horizontalStack=0;resizeParent=1;resizeParentMax=0;resizeLast=0;collapsible=1;marginBottom=0;" vertex="1" parent="WIyWlLk6GJQsqaUBKTNV-1">
          <mxGeometry x="200" y="600" width="160" height="120" as="geometry"/>
        </mxCell>

        <!-- Casos de Uso -->
        <!-- Gestión de Usuarios -->
        <mxCell id="uc1" value="Iniciar Sesión" style="ellipse;whiteSpace=wrap;html=1;" vertex="1" parent="package1">
          <mxGeometry x="10" y="40" width="140" height="70" as="geometry"/>
        </mxCell>
        <mxCell id="uc2" value="Registrarse" style="ellipse;whiteSpace=wrap;html=1;" vertex="1" parent="package1">
          <mxGeometry x="10" y="120" width="140" height="70" as="geometry"/>
        </mxCell>
        <mxCell id="uc3" value="Gestionar Perfil" style="ellipse;whiteSpace=wrap;html=1;" vertex="1" parent="package1">
          <mxGeometry x="10" y="200" width="140" height="70" as="geometry"/>
        </mxCell>

        <!-- Gestión de Café -->
        <mxCell id="uc4" value="Crear Café Personalizado" style="ellipse;whiteSpace=wrap;html=1;" vertex="1" parent="package2">
          <mxGeometry x="10" y="40" width="140" height="70" as="geometry"/>
        </mxCell>
        <mxCell id="uc5" value="Guardar Receta" style="ellipse;whiteSpace=wrap;html=1;" vertex="1" parent="package2">
          <mxGeometry x="10" y="120" width="140" height="70" as="geometry"/>
        </mxCell>
        <mxCell id="uc6" value="Realizar Pedido" style="ellipse;whiteSpace=wrap;html=1;" vertex="1" parent="package2">
          <mxGeometry x="10" y="200" width="140" height="70" as="geometry"/>
        </mxCell>
        <mxCell id="uc7" value="Cancelar Pedido" style="ellipse;whiteSpace=wrap;html=1;" vertex="1" parent="package2">
          <mxGeometry x="10" y="280" width="140" height="70" as="geometry"/>
        </mxCell>

        <!-- Gestión de Productos -->
        <mxCell id="uc8" value="Ver Productos" style="ellipse;whiteSpace=wrap;html=1;" vertex="1" parent="package3">
          <mxGeometry x="10" y="40" width="140" height="70" as="geometry"/>
        </mxCell>
        <mxCell id="uc9" value="Agregar al Carrito" style="ellipse;whiteSpace=wrap;html=1;" vertex="1" parent="package3">
          <mxGeometry x="10" y="120" width="140" height="70" as="geometry"/>
        </mxCell>
        <mxCell id="uc10" value="Quitar del Carrito" style="ellipse;whiteSpace=wrap;html=1;" vertex="1" parent="package3">
          <mxGeometry x="10" y="200" width="140" height="70" as="geometry"/>
        </mxCell>
        <mxCell id="uc11" value="Realizar Compra" style="ellipse;whiteSpace=wrap;html=1;" vertex="1" parent="package3">
          <mxGeometry x="10" y="280" width="140" height="70" as="geometry"/>
        </mxCell>

        <!-- Gestión de Reseñas -->
        <mxCell id="uc12" value="Escribir Reseña" style="ellipse;whiteSpace=wrap;html=1;" vertex="1" parent="package4">
          <mxGeometry x="10" y="40" width="140" height="70" as="geometry"/>
        </mxCell>
        <mxCell id="uc13" value="Moderar Reseñas" style="ellipse;whiteSpace=wrap;html=1;" vertex="1" parent="package4">
          <mxGeometry x="10" y="120" width="140" height="70" as="geometry"/>
        </mxCell>
        <mxCell id="uc14" value="Calificar Reseñas" style="ellipse;whiteSpace=wrap;html=1;" vertex="1" parent="package4">
          <mxGeometry x="10" y="200" width="140" height="70" as="geometry"/>
        </mxCell>

        <!-- Relaciones Cliente -->
        <mxCell id="rel1" value="" style="endArrow=none;html=1;rounded=0;exitX=1;exitY=0.5;exitDx=0;exitDy=0;entryX=0;entryY=0.5;entryDx=0;entryDy=0;" edge="1" parent="WIyWlLk6GJQsqaUBKTNV-1" source="actor1" target="uc1">
          <mxGeometry width="50" height="50" relative="1" as="geometry"/>
        </mxCell>
        <mxCell id="rel2" value="" style="endArrow=none;html=1;rounded=0;exitX=1;exitY=0.5;exitDx=0;exitDy=0;entryX=0;entryY=0.5;entryDx=0;entryDy=0;" edge="1" parent="WIyWlLk6GJQsqaUBKTNV-1" source="actor1" target="uc2">
          <mxGeometry width="50" height="50" relative="1" as="geometry"/>
        </mxCell>
        <mxCell id="rel3" value="" style="endArrow=none;html=1;rounded=0;exitX=1;exitY=0.5;exitDx=0;exitDy=0;entryX=0;entryY=0.5;entryDx=0;entryDy=0;" edge="1" parent="WIyWlLk6GJQsqaUBKTNV-1" source="actor1" target="uc3">
          <mxGeometry width="50" height="50" relative="1" as="geometry"/>
        </mxCell>
        <mxCell id="rel4" value="" style="endArrow=none;html=1;rounded=0;exitX=1;exitY=0.5;exitDx=0;exitDy=0;entryX=0;entryY=0.5;entryDx=0;entryDy=0;" edge="1" parent="WIyWlLk6GJQsqaUBKTNV-1" source="actor1" target="uc4">
          <mxGeometry width="50" height="50" relative="1" as="geometry"/>
        </mxCell>
        <mxCell id="rel5" value="" style="endArrow=none;html=1;rounded=0;exitX=1;exitY=0.5;exitDx=0;exitDy=0;entryX=0;entryY=0.5;entryDx=0;entryDy=0;" edge="1" parent="WIyWlLk6GJQsqaUBKTNV-1" source="actor1" target="uc5">
          <mxGeometry width="50" height="50" relative="1" as="geometry"/>
        </mxCell>
        <mxCell id="rel6" value="" style="endArrow=none;html=1;rounded=0;exitX=1;exitY=0.5;exitDx=0;exitDy=0;entryX=0;entryY=0.5;entryDx=0;entryDy=0;" edge="1" parent="WIyWlLk6GJQsqaUBKTNV-1" source="actor1" target="uc6">
          <mxGeometry width="50" height="50" relative="1" as="geometry"/>
        </mxCell>
        <mxCell id="rel7" value="" style="endArrow=none;html=1;rounded=0;exitX=1;exitY=0.5;exitDx=0;exitDy=0;entryX=0;entryY=0.5;entryDx=0;entryDy=0;" edge="1" parent="WIyWlLk6GJQsqaUBKTNV-1" source="actor1" target="uc7">
          <mxGeometry width="50" height="50" relative="1" as="geometry"/>
        </mxCell>
        <mxCell id="rel8" value="" style="endArrow=none;html=1;rounded=0;exitX=1;exitY=0.5;exitDx=0;exitDy=0;entryX=0;entryY=0.5;entryDx=0;entryDy=0;" edge="1" parent="WIyWlLk6GJQsqaUBKTNV-1" source="actor1" target="uc8">
          <mxGeometry width="50" height="50" relative="1" as="geometry"/>
        </mxCell>
        <mxCell id="rel9" value="" style="endArrow=none;html=1;rounded=0;exitX=1;exitY=0.5;exitDx=0;exitDy=0;entryX=0;entryY=0.5;entryDx=0;entryDy=0;" edge="1" parent="WIyWlLk6GJQsqaUBKTNV-1" source="actor1" target="uc9">
          <mxGeometry width="50" height="50" relative="1" as="geometry"/>
        </mxCell>
        <mxCell id="rel10" value="" style="endArrow=none;html=1;rounded=0;exitX=1;exitY=0.5;exitDx=0;exitDy=0;entryX=0;entryY=0.5;entryDx=0;entryDy=0;" edge="1" parent="WIyWlLk6GJQsqaUBKTNV-1" source="actor1" target="uc10">
          <mxGeometry width="50" height="50" relative="1" as="geometry"/>
        </mxCell>
        <mxCell id="rel11" value="" style="endArrow=none;html=1;rounded=0;exitX=1;exitY=0.5;exitDx=0;exitDy=0;entryX=0;entryY=0.5;entryDx=0;entryDy=0;" edge="1" parent="WIyWlLk6GJQsqaUBKTNV-1" source="actor1" target="uc11">
          <mxGeometry width="50" height="50" relative="1" as="geometry"/>
        </mxCell>
        <mxCell id="rel12" value="" style="endArrow=none;html=1;rounded=0;exitX=1;exitY=0.5;exitDx=0;exitDy=0;entryX=0;entryY=0.5;entryDx=0;entryDy=0;" edge="1" parent="WIyWlLk6GJQsqaUBKTNV-1" source="actor1" target="uc12">
          <mxGeometry width="50" height="50" relative="1" as="geometry"/>
        </mxCell>
        <mxCell id="rel13" value="" style="endArrow=none;html=1;rounded=0;exitX=1;exitY=0.5;exitDx=0;exitDy=0;entryX=0;entryY=0.5;entryDx=0;entryDy=0;" edge="1" parent="WIyWlLk6GJQsqaUBKTNV-1" source="actor1" target="uc14">
          <mxGeometry width="50" height="50" relative="1" as="geometry"/>
        </mxCell>

        <!-- Relaciones Empleado -->
        <mxCell id="rel14" value="" style="endArrow=none;html=1;rounded=0;exitX=1;exitY=0.5;exitDx=0;exitDy=0;entryX=0;entryY=0.5;entryDx=0;entryDy=0;" edge="1" parent="WIyWlLk6GJQsqaUBKTNV-1" source="actor2" target="uc6">
          <mxGeometry width="50" height="50" relative="1" as="geometry"/>
        </mxCell>
        <mxCell id="rel15" value="" style="endArrow=none;html=1;rounded=0;exitX=1;exitY=0.5;exitDx=0;exitDy=0;entryX=0;entryY=0.5;entryDx=0;entryDy=0;" edge="1" parent="WIyWlLk6GJQsqaUBKTNV-1" source="actor2" target="uc7">
          <mxGeometry width="50" height="50" relative="1" as="geometry"/>
        </mxCell>
        <mxCell id="rel16" value="" style="endArrow=none;html=1;rounded=0;exitX=1;exitY=0.5;exitDx=0;exitDy=0;entryX=0;entryY=0.5;entryDx=0;entryDy=0;" edge="1" parent="WIyWlLk6GJQsqaUBKTNV-1" source="actor2" target="uc13">
          <mxGeometry width="50" height="50" relative="1" as="geometry"/>
        </mxCell>

        <!-- Relaciones Admin -->
        <mxCell id="rel17" value="" style="endArrow=none;html=1;rounded=0;exitX=1;exitY=0.5;exitDx=0;exitDy=0;entryX=0;entryY=0.5;entryDx=0;entryDy=0;" edge="1" parent="WIyWlLk6GJQsqaUBKTNV-1" source="actor3" target="uc13">
          <mxGeometry width="50" height="50" relative="1" as="geometry"/>
        </mxCell>
        <mxCell id="rel18" value="" style="endArrow=none;html=1;rounded=0;exitX=1;exitY=0.5;exitDx=0;exitDy=0;entryX=0;entryY=0.5;entryDx=0;entryDy=0;" edge="1" parent="WIyWlLk6GJQsqaUBKTNV-1" source="actor3" target="uc3">
          <mxGeometry width="50" height="50" relative="1" as="geometry"/>
        </mxCell>

        <!-- Notas -->
        <mxCell id="note1" value="Implementa el patrón Command" style="shape=note;whiteSpace=wrap;html=1;size=0.25;" vertex="1" parent="WIyWlLk6GJQsqaUBKTNV-1">
          <mxGeometry x="400" y="440" width="120" height="60" as="geometry"/>
        </mxCell>
        <mxCell id="note2" value="Implementa el patrón Builder" style="shape=note;whiteSpace=wrap;html=1;size=0.25;" vertex="1" parent="WIyWlLk6GJQsqaUBKTNV-1">
          <mxGeometry x="400" y="240" width="120" height="60" as="geometry"/>
        </mxCell>
        <mxCell id="note3" value="Implementa el patrón Proxy" style="shape=note;whiteSpace=wrap;html=1;size=0.25;" vertex="1" parent="WIyWlLk6GJQsqaUBKTNV-1">
          <mxGeometry x="400" y="640" width="120" height="60" as="geometry"/>
        </mxCell>

      </root>
    </mxGraphModel>
  </diagram>
</mxfile> 